HIERARCHY
ROOT SpineBase
{
  OFFSET 0.000000 0.000000 0.000000
  CHANNELS 6 Xposition Yposition Zposition Zrotation Xrotation Yrotation
  JOINT SpineMid
  {
    OFFSET -0.000000 30.097335 0.000000
    CHANNELS 3 Zrotation Xrotation Yrotation
    JOINT SpineShoulder
    {
      OFFSET -0.492991 22.422765 -0.779401
      CHANNELS 3 Zrotation Xrotation Yrotation
      JOINT Neck
      {
        OFFSET -0.392659 7.447314 -0.378393
        CHANNELS 3 Zrotation Xrotation Yrotation
        JOINT Head
        {
          OFFSET -2.073305 10.406181 2.569725
          CHANNELS 3 Zrotation Xrotation Yrotation
          End Site
          {
            OFFSET 0 0 0
          }
        }
      }
      JOINT ShoulderLeft
      {
        OFFSET -13.155678 -6.996573 6.647981
        CHANNELS 3 Zrotation Xrotation Yrotation
        JOINT ElbowLeft
        {
          OFFSET 11.309525 -15.651570 -17.869233
          CHANNELS 3 Zrotation Xrotation Yrotation
          JOINT WristLeft
          {
            OFFSET 2.541714 -23.543553 -8.919743
            CHANNELS 3 Zrotation Xrotation Yrotation
            JOINT HandLeft
            {
              OFFSET 0.624211 -4.983416 7.522328
              CHANNELS 3 Zrotation Xrotation Yrotation
              JOINT HandTipLeft
              {
                OFFSET 1.366331 -8.023082 -0.653332
                CHANNELS 3 Zrotation Xrotation Yrotation
                End Site
                {
                  OFFSET 0 0 0
                }
              }
              JOINT ThumbLeft
              {
                OFFSET -5.768128 -0.717593 -2.081090
                CHANNELS 3 Zrotation Xrotation Yrotation
                End Site
                {
                  OFFSET 0 0 0
                }
              }
            }
          }
        }
      }
      JOINT ShoulderRight
      {
        OFFSET 2.130447 -4.557064 -11.066100
        CHANNELS 3 Zrotation Xrotation Yrotation
        JOINT ElbowRight
        {
          OFFSET -2.024171 -24.721534 -4.746581
          CHANNELS 3 Zrotation Xrotation Yrotation
          JOINT WristRight
          {
            OFFSET -6.410655 -19.331711 0.087386
            CHANNELS 3 Zrotation Xrotation Yrotation
            JOINT HandRight
            {
              OFFSET 0.133293 -6.879660 1.252467
              CHANNELS 3 Zrotation Xrotation Yrotation
              JOINT HandTipRight
              {
                OFFSET -1.857988 -6.746105 0.930447
                CHANNELS 3 Zrotation Xrotation Yrotation
                End Site
                {
                  OFFSET 0 0 0
                }
              }
              JOINT ThumbRight
              {
                OFFSET 3.310209 -0.313968 0.405962
                CHANNELS 3 Zrotation Xrotation Yrotation
                End Site
                {
                  OFFSET 0 0 0
                }
              }
            }
          }
        }
      }
    }
  }
  JOINT HipLeft
  {
    OFFSET -4.461326 0.281650 -1.662918
    CHANNELS 3 Zrotation Xrotation Yrotation
    JOINT KneeLeft
    {
      OFFSET -5.716152 -25.678331 4.723205
      CHANNELS 3 Zrotation Xrotation Yrotation
      JOINT AnkleLeft
      {
        OFFSET 5.448669 -35.569199 15.063061
        CHANNELS 3 Zrotation Xrotation Yrotation
        JOINT FootLeft
        {
          OFFSET 3.403254 -5.370767 -6.923492
          CHANNELS 3 Zrotation Xrotation Yrotation
          End Site
          {
            OFFSET 0 0 0
          }
        }
      }
    }
  }
  JOINT HipRight
  {
    OFFSET 4.853948 1.091231 -4.598162
    CHANNELS 3 Zrotation Xrotation Yrotation
    JOINT KneeRight
    {
      OFFSET -1.996495 -27.081415 -1.266460
      CHANNELS 3 Zrotation Xrotation Yrotation
      JOINT AnkleRight
      {
        OFFSET 8.199255 -33.437245 4.373486
        CHANNELS 3 Zrotation Xrotation Yrotation
        JOINT FootRight
        {
          OFFSET -2.442222 -8.360163 4.234576
          CHANNELS 3 Zrotation Xrotation Yrotation
          End Site
          {
            OFFSET 0 0 0
          }
        }
      }
    }
  }
}
MOTION
Frames: 5
Frame Time: 0.033333
-25.454026 69.029804 358.257259 4.520598 1.399792 6.576321 -2.541416 -0.511913 -6.556860 -1.615913 -1.963740 -0.135055 0.361973 3.106359 0.170328 0.000000 0.000000 0.000000 3.121905 7.068128 -0.142733 23.897380 -32.499968 -4.371685 -55.419204 48.425232 25.259745 -4.758492 -18.776890 8.229076 0.000000 0.000000 0.000000 0.000000 0.000000 0.000000 1.124010 2.732293 -0.413243 -0.719058 0.078643 -0.074895 -2.299244 -7.721099 -0.041665 -0.548174 8.921773 -0.429845 0.000000 0.000000 0.000000 0.000000 0.000000 0.000000 21.632472 8.186738 -6.357345 -37.868752 -13.022034 -12.587638 -19.732604 -43.320739 28.722288 0.000000 0.000000 0.000000 -23.091873 8.558280 -5.056749 20.120820 -9.889269 0.473586 -13.102467 54.174018 -19.079540 0.000000 0.000000 0.000000
-24.585240 69.330325 357.705308 5.778617 2.137326 5.066078 -3.160867 -0.825473 -5.081669 -1.990906 -1.894461 -0.131958 -0.024226 2.224383 0.095561 0.000000 0.000000 0.000000 2.844756 6.610004 -0.118132 23.896084 -32.468482 -4.398605 -55.362891 48.437193 25.282133 -5.249571 -14.704190 9.182710 0.000000 0.000000 0.000000 0.000000 0.000000 0.000000 0.955573 2.465099 -0.485122 -1.023221 -0.719606 0.148462 -2.739811 -5.214127 -0.290992 -4.204584 9.392816 -1.111733 0.000000 0.000000 0.000000 0.000000 0.000000 0.000000 17.502483 7.089108 -4.555188 -33.311861 -11.053343 -10.310870 -25.512302 -46.478216 34.450909 0.000000 0.000000 0.000000 -26.829600 6.681551 -3.791159 22.217520 -8.887097 0.287283 -13.474535 50.212535 -17.662256 0.000000 0.000000 0.000000
-24.040354 69.417224 357.302249 6.346925 2.536550 4.756558 -3.063429 -0.671624 -4.778251 -2.206903 -1.542769 -0.105800 -0.549358 0.579365 -0.084126 0.000000 0.000000 0.000000 2.416903 5.773677 -0.078011 23.891568 -32.411357 -4.442672 -56.090108 49.292920 26.068403 -4.309851 -19.885855 7.895822 0.000000 0.000000 0.000000 0.000000 0.000000 0.000000 0.744876 1.510005 -0.576767 -1.875330 -1.588775 0.464802 -2.998542 -2.209212 -0.644715 -8.564095 9.996277 -1.939761 0.000000 0.000000 0.000000 0.000000 0.000000 0.000000 15.092762 6.083978 -4.071824 -30.600498 -8.775429 -8.904749 -31.490818 -54.539427 29.565535 0.000000 0.000000 0.000000 -27.629371 4.572741 -3.869582 21.947576 -7.084398 -0.196571 -16.186032 60.602013 -21.508427 0.000000 0.000000 0.000000
-24.708258 69.174481 357.268810 5.053044 2.193046 4.912985 -1.756110 -0.060818 -4.876134 -2.109982 -1.418656 -0.089632 -0.542367 0.110539 -0.123149 0.000000 0.000000 0.000000 2.377895 5.433136 0.000506 23.880259 -32.342472 -4.494208 -54.906166 48.251555 25.156222 -5.626909 -12.905138 9.255173 0.000000 0.000000 0.000000 0.000000 0.000000 0.000000 0.441187 0.909123 -0.535817 -0.791526 -1.958292 0.603653 -4.068959 0.037185 -0.744555 -7.690328 6.609145 -1.908004 0.000000 0.000000 0.000000 0.000000 0.000000 0.000000 18.254953 6.154757 -3.921027 -32.008416 -7.484245 -8.880335 -41.616025 -63.582473 14.179431 0.000000 0.000000 0.000000 -24.658832 4.495444 -4.022438 20.031651 -6.792831 -0.282104 -21.505711 58.497029 -19.814483 0.000000 0.000000 0.000000
-25.475526 68.939713 357.106558 3.867328 2.079947 5.973898 -0.913780 0.252703 -5.913245 -1.849538 -1.412688 -0.075388 -0.359875 0.073936 -0.102441 0.000000 0.000000 0.000000 2.558651 5.409999 0.087931 23.852985 -32.313434 -4.515583 -53.285000 46.588487 23.764625 -5.834168 -8.661035 10.253300 0.000000 0.000000 0.000000 0.000000 0.000000 0.000000 0.778595 0.694488 -0.585055 -1.849590 -1.530247 0.456319 -3.688591 0.755778 -0.633924 -9.246134 8.722773 -2.765848 0.000000 0.000000 0.000000 0.000000 0.000000 0.000000 21.297466 5.576493 -4.518273 -34.016537 -6.717087 -9.331654 -60.797342 -70.009962 -15.775077 0.000000 0.000000 0.000000 -21.451328 3.878542 -5.201388 17.839053 -5.845311 -0.475732 -28.832774 63.018434 -19.580431 0.000000 0.000000 0.000000
